<svg xmlns="http://www.w3.org/2000/svg" xmlns:xlink="http://www.w3.org/1999/xlink" width="36" height="28" viewBox="0 0 36 28"><defs><path id="if37a" d="M55.738 412.14H46.93l6.023 5.263h2.82c3.272 0 5.918 2.63 5.918 5.964 0 3.332-2.68 5.999-5.953 5.999H46.93l12.01 10.49h7.938l-6.962-6.07a11.194 11.194 0 0 0 6.997-10.454c0-6.189-4.978-11.192-11.11-11.192h-.065"/><path id="if37b" d="M31.265 412.14l6.963 6.104a11.206 11.206 0 0 0-6.998 10.49c.035 6.175 5.048 11.191 11.21 11.191h8.808l-5.988-5.262h-2.82c-3.307 0-5.953-2.667-5.953-6 0-3.332 2.68-5.998 5.953-5.998h8.808l-12.01-10.525z"/></defs><g><g transform="translate(-31 -412)"><g><use fill="#2ed8a2" xlink:href="#if37a"/></g><g><use fill="#2972ff" xlink:href="#if37b"/></g></g></g></svg>