<svg xmlns="http://www.w3.org/2000/svg" xmlns:xlink="http://www.w3.org/1999/xlink" width="44" height="44" viewBox="0 0 44 44"><defs><path id="t9pga" d="M42.391 706.12l2.849 8.945h3.53l2.849-8.945-4.615-8.142zm14.297 8.955l-4.477-7.912-2.516 7.912zm-4.714-10.088l1.57-4.937-6.094-8.346v5.28zm1.988-3.325l-1.39 4.359 3.818 6.736-2.428-11.096zm1.95 14.283h-6.499l-1.62 5.078zm-7.423 0h-2.97l1.485 4.664zm-1.939-18.962v-5.279l-6.095 8.346 1.57 4.937zm-8.452 18.964h.002l-.002-.002zm.002 0l8.116 5.076-1.62-5.076zm-.779-.87l.001-.002h-.002zm.001-.002h6.994l-2.516-7.912zm4.115-9.054l-1.389-4.36-2.43 11.096zm-1.902-6.146a.443.443 0 0 1 .081-.178l7.023-9.599a.427.427 0 0 1 .36-.181.427.427 0 0 1 .362.181l7.023 9.597c.04.053.066.114.08.18l3.394 15.51a.443.443 0 0 1-.212.499l-10.408 6.522a.446.446 0 0 1-.477 0l-10.408-6.522a.443.443 0 0 1-.213-.5l3.395-15.51zM69 706c0-12.15-9.85-22-22-22s-22 9.85-22 22 9.85 22 22 22 22-9.85 22-22z"/></defs><g><g transform="translate(-25 -684)"><use xlink:href="#t9pga"/></g></g></svg>