<?xml version="1.0" encoding="UTF-8"?>
<svg width="85px" height="34px" viewBox="0 0 85 34" version="1.1" 
  xmlns="http://www.w3.org/2000/svg" 
  xmlns:xlink="http://www.w3.org/1999/xlink">
  <title>Union Alpha Logo</title>
  <g id="Union-Website" stroke="none" stroke-width="1" fill="none" fill-rule="evenodd">
    <g id="Analytics-New" transform="translate(-51.000000, -28.000000)" fill="#151f2a">
      <g id="nav" transform="translate(0.000000, 23.000000)">
        <g id="logo-alpha" transform="translate(51.000000, 5.000000)">
          <g>
            <g id="logo" transform="translate(0.000000, 0.000000)">
              <polygon id="Fill-1" points="33.7939111 21.3674197 38.3466148 21.3674197 38.3466148 1.08491134 33.7939111 1.08491134"></polygon>
              <path d="M79.0547333,21.3671731 C77.7513259,19.0450497 76.3409407,16.7525232 74.8235778,14.4895936 C73.3062148,12.2260474 71.6910963,10.0895213 69.9794519,8.08001515 L69.9794519,21.3671731 L65.4851556,21.3671731 L65.4851556,1.0846647 L69.1918741,1.0846647 C69.8331259,1.72839725 70.543237,2.5188811 71.3215926,3.45549964 C72.0993333,4.39211818 72.8924444,5.39224674 73.7003111,6.4552687 C74.5069481,7.51890727 75.3098963,8.62139176 76.1079259,9.76272219 C76.9053407,10.9040526 77.6548,12.0022209 78.3550741,13.0559938 L78.3550741,1.0846647 L82.8776519,1.0846647 L82.8776519,21.3671731 L79.0547333,21.3671731 Z" id="Fill-5"></path>
              <path d="M11.9939919,5.8077192 L11.9939919,13.3178031 C11.9939919,14.957348 11.6484659,16.1184097 10.9580289,16.8016047 C10.266977,17.4847998 9.36750296,17.8251642 8.25837704,17.8251642 C7.71365111,17.8251642 7.21257704,17.7480889 6.75576963,17.5908554 C6.29773259,17.4348551 5.90916963,17.177732 5.5882363,16.8157866 C5.26730296,16.455691 5.01399926,15.9864568 4.82955481,15.4105505 C4.64449556,14.8358774 4.55227333,14.1378838 4.55227333,13.3178031 L4.55227333,1.08503466 L0.000184444444,1.08503466 L0.000184444444,13.6988631 C0.000184444444,14.8895217 0.160651111,15.9772078 0.481584444,16.9625379 C0.802517778,17.947868 1.29867333,18.7963124 1.9694363,19.5084878 C2.64081407,20.2206632 3.49171778,20.7768383 4.52337704,21.177013 C5.55442148,21.5759546 6.77974741,21.7763502 8.20058444,21.7763502 C9.63925111,21.7763502 10.8848659,21.5808874 11.9355844,21.1905783 C12.9856881,20.8008858 13.8513474,20.2502601 14.5325622,19.5380847 C15.2131622,18.8259093 15.7191548,17.9725321 16.05054,16.9761031 C16.3806956,15.981524 16.5460807,14.8895217 16.5460807,13.6988631 L16.5460807,11.166952 L11.9939919,5.8077192 Z" id="Fill-7"></path>
              <path d="M24.8936674,1.084973 L24.8936674,13.0556855 C24.1933933,12.0019126 23.4439341,10.9037443 22.6465193,9.76241389 C21.8484896,8.62108346 21.0461563,7.51921557 20.2389044,6.455577 C19.4310378,5.39193844 18.6385415,4.39242649 17.8608007,3.45519134 C17.0824452,2.51918941 16.3723341,1.72870556 15.7304674,1.084973 L12.0237489,1.084973 L12.0237489,2.62151223 L16.5180452,8.07970685 C18.2296896,10.0898296 19.8448081,12.2257391 21.3621711,14.4892853 C22.8801489,16.7522149 24.2905341,19.045358 25.5939415,21.3674814 L29.4162452,21.3674814 L29.4162452,1.084973 L24.8936674,1.084973 Z" id="Fill-9"></path>
              <path d="M46.5460926,11.2113054 C46.5460926,12.2058846 46.6672111,13.1036572 46.9112926,13.9033901 C47.1541444,14.7037395 47.5045889,15.392484 47.9613963,15.9677738 C48.4182037,16.5424469 48.9776852,16.987017 49.6392259,17.298401 C50.3001519,17.6110183 51.0594481,17.7676352 51.9152704,17.7676352 C52.7520333,17.7676352 53.5064111,17.6110183 54.1771741,17.298401 C54.8485519,16.987017 55.412337,16.5424469 55.8703741,15.9677738 C56.3265667,15.392484 56.6770111,14.7037395 56.9204778,13.9033901 C57.1639444,13.1036572 57.285063,12.2058846 57.285063,11.2113054 C57.285063,10.2161097 57.1639444,9.31402087 56.9204778,8.50442235 C56.6770111,7.69482384 56.3265667,7.00176311 55.8703741,6.42585678 C55.412337,5.85118366 54.8485519,5.40661357 54.1771741,5.09461292 C53.5064111,4.78261227 52.7520333,4.62599535 51.9152704,4.62599535 C51.0594481,4.62599535 50.3001519,4.78754509 49.6392259,5.10941137 C48.9776852,5.43066105 48.4182037,5.88016395 47.9613963,6.45545368 C47.5045889,7.03074341 47.1541444,7.72380413 46.9112926,8.53340265 C46.6672111,9.34300116 46.5460926,10.235841 46.5460926,11.2113054 M61.9834778,11.2113054 C61.9834778,12.9476568 61.7252556,14.4743636 61.2106556,15.7914256 C60.6948259,17.107871 59.9890185,18.2115887 59.094463,19.0988791 C58.1999074,19.986786 57.1344333,20.6545661 55.8986556,21.104069 C54.6634926,21.5523387 53.3354926,21.7767818 51.9152704,21.7767818 C50.5343963,21.7767818 49.2309889,21.5523387 48.005663,21.104069 C46.7791074,20.6545661 45.7093296,19.986786 44.7951,19.0988791 C43.8808704,18.2115887 43.1609222,17.107871 42.6358704,15.7914256 C42.1108185,14.4743636 41.8476778,12.9476568 41.8476778,11.2113054 C41.8476778,9.47495401 42.1200407,7.94824729 42.6647667,6.63118527 C43.2094926,5.31412326 43.9441963,4.20670594 44.868263,3.30954994 C45.7917148,2.41177733 46.8621074,1.73906447 48.0782111,1.28956156 C49.2937,0.84129186 50.5737444,0.616232106 51.9152704,0.616232106 C53.2967593,0.616232106 54.6007815,0.84129186 55.8261074,1.28956156 C57.0520481,1.73906447 58.1212111,2.41177733 59.0360556,3.30954994 C59.9502852,4.20670594 60.6708481,5.31412326 61.1959,6.63118527 C61.7209519,7.94824729 61.9834778,9.47495401 61.9834778,11.2113054" id="Fill-2"></path>
            </g>
            <text id="ALPHA" opacity="0.400000006" font-family="Ubuntu-Medium, Ubuntu" font-size="10" font-weight="400">
              <tspan x="52.06" y="34">ALPHA</tspan>
            </text>
          </g>
        </g>
      </g>
    </g>
  </g>
</svg>