<svg xmlns="http://www.w3.org/2000/svg" xmlns:xlink="http://www.w3.org/1999/xlink" width="44" height="44" viewBox="0 0 44 44"><defs><path id="qi6ea" d="M25 163c0-12.15 9.85-22 22-22s22 9.85 22 22-9.85 22-22 22-22-9.85-22-22z"/><path id="qi6eb" d="M50.566 177c-2.044 0-3.534-.482-4.469-1.442-.934-.963-1.401-2-1.401-3.112 0-.406.08-.75.245-1.027.16-.275.39-.502.667-.658.283-.16.63-.24 1.043-.24.413 0 .762.08 1.045.24.283.161.504.38.668.658.163.278.245.62.245 1.027 0 .491-.12.891-.359 1.202-.21.29-.507.503-.848.61.283.384.728.657 1.337.817a6.684 6.684 0 0 0 1.825.257 4.102 4.102 0 0 0 2.3-.673c.685-.45 1.19-1.113 1.515-1.988.327-.878.49-1.872.49-2.983 0-1.209-.179-2.24-.537-3.096-.349-.866-.865-1.508-1.55-1.925a4.186 4.186 0 0 0-2.218-.624c-.52 0-1.173.213-1.955.641l-1.435.706v-.706l6.456-8.467h-8.934v8.788c0 .728.162 1.325.49 1.796.324.47.826.705 1.498.705.522 0 1.022-.17 1.5-.513.48-.345.9-.767 1.24-1.25a.479.479 0 0 1 .163-.21.33.33 0 0 1 .212-.079c.12 0 .26.059.424.175.148.162.23.374.228.594a4.087 4.087 0 0 1-.081.449c-.37.812-.882 1.432-1.533 1.86a3.847 3.847 0 0 1-2.152.642c-1.935 0-3.272-.374-4.01-1.123-.74-.748-1.11-1.764-1.11-3.046v-8.788H37v-1.637h4.564v-3.718l-1.042-1.028V149h3.033l1.14.577v5.003l11.804-.032 1.176 1.155-7.24 7.12c.438-.172.899-.28 1.368-.322.784 0 1.664.247 2.642.74.99.48 1.75 1.143 2.282 1.988.534.834.877 1.636 1.028 2.406.152.674.234 1.362.245 2.053a8.428 8.428 0 0 1-.88 3.816 5.652 5.652 0 0 1-2.675 2.63 8.807 8.807 0 0 1-3.88.866z"/></defs><g><g transform="translate(-25 -141)"><g><use fill="#a6e000" xlink:href="#qi6ea"/></g><g><use fill="#fff" xlink:href="#qi6eb"/></g></g></g></svg>